<?xml version="1.0" encoding="UTF-8"?>
<svg width="92px" height="64px" viewBox="0 0 92 64" version="1.1" xmlns="http://www.w3.org/2000/svg" xmlns:xlink="http://www.w3.org/1999/xlink">
    <!-- Generator: sketchtool 60 (101010) - https://sketch.com -->
    <title>B9C5EFE4-2E2E-4593-BC0D-AECA8DBA4D2B@1,5x</title>
    <desc>Created with sketchtool.</desc>
    <defs>
        <polygon id="path-1" points="4.94680251 17.6678745 77.75176 6.10439023 85.1566514 52.9879877 12.3516939 64.5514719"></polygon>
        <linearGradient x1="0.614832377%" y1="55.248943%" x2="99.3838214%" y2="44.7517262%" id="linearGradient-3">
            <stop stop-color="#E8832F" offset="0%"></stop>
            <stop stop-color="#E8592B" offset="100%"></stop>
        </linearGradient>
        <polygon id="path-4" points="2.74133213 22.2843545 93.7291498 7.97908888 97.846337 33.7832402 6.85851942 48.0885059"></polygon>
        <linearGradient x1="0.614798753%" y1="52.8932179%" x2="99.3837877%" y2="47.1069939%" id="linearGradient-6">
            <stop stop-color="#E8832F" offset="0%"></stop>
            <stop stop-color="#E8592B" offset="100%"></stop>
        </linearGradient>
    </defs>
    <g id="Sites" stroke="none" stroke-width="1" fill="none" fill-rule="evenodd">
        <g id="Landing-page---design-v2.2" transform="translate(-145.000000, -778.000000)">
            <g id="bloc/nos-fournisseurs" transform="translate(-1.000000, 710.000000)">
                <g id="Group-7" transform="translate(191.000000, 100.000000) scale(-1, 1) translate(-191.000000, -100.000000) translate(136.000000, 49.000000)">
                    <g id="Group-3" transform="translate(58.708657, 42.884905) rotate(-9.000000) translate(-58.708657, -42.884905) translate(13.708657, 7.384905)">
                        <mask id="mask-2" fill="white">
                            <use xlink:href="#path-1"></use>
                        </mask>
                        <g id="Clip-2" opacity="0.5" transform="translate(45.051727, 35.327931) rotate(9.000000) translate(-45.051727, -35.327931) "></g>
                        <path d="M54.9291177,16.5746086 C54.0992973,16.7997406 53.2644645,17.0101583 52.4404659,17.2550438 C49.4100698,18.1569558 46.4691445,19.2696026 43.6467995,20.6917516 C35.8512061,24.6209067 29.9948795,30.3677548 26.4015549,38.2330107 C24.5543189,42.2794305 23.4132323,46.5177815 22.8781579,50.9017116 C22.615085,53.0555288 22.5005804,55.2274736 22.3397278,57.3911583 C22.3109905,57.772736 22.2245575,57.8611332 21.8378317,57.7123086 C17.8322444,56.1707596 14.2835839,53.9457394 11.192005,51.0217271 C10.7115695,50.5698483 10.5940949,50.0199719 10.5794592,49.4178788 C10.5101054,46.8433118 10.6121663,44.2807224 10.9746948,41.7239543 C12.3364506,32.1667125 17.1813978,24.6742476 25.1896718,19.118289 C31.1295493,14.9958987 37.816554,12.8205198 45.0609826,12.3015038 C52.399226,11.7730052 59.375329,13.028953 65.8730251,16.433598 C72.00077,19.6454742 76.6035906,24.3274534 79.7551573,30.3776342 C82.0289123,34.7388275 83.2873364,39.3902777 83.8830568,44.2356007 C83.9246329,44.5932856 83.8369625,44.8058511 83.5145047,45.0240824 C80.420684,47.1136603 77.1274447,48.852119 73.716721,50.3867997 C72.4250665,50.9681517 71.115637,51.5212854 69.8129937,52.0836907 C69.2258065,52.3355083 69.1730772,52.3204962 68.9662997,51.7587353 C68.1558458,49.5659132 67.3483802,47.3752073 66.5534272,45.1799649 C66.2241761,44.2679848 66.2368433,44.2479272 65.2685746,44.5179218 C63.6282325,44.9729209 61.9950812,45.4397112 60.3601561,45.9119442 C59.6716175,46.1098509 59.6680697,46.1207361 59.742007,46.8117167 C60.0359098,49.415793 60.3349795,52.0190625 60.6237153,54.6239456 C60.7033198,55.3502007 60.6942003,55.3593731 59.9995304,55.5685683 C55.4856703,56.9293955 50.9217465,58.0939973 46.2729823,58.928332 C45.5882053,59.0507498 45.5999083,59.041174 45.4117384,58.3809437 C44.6380454,55.6916473 43.8544232,53.006484 43.0829089,50.3142646 C43.0019618,50.0247145 42.8553814,49.9365406 42.5495664,49.9946217 C40.4122546,50.4058252 38.2737285,50.8094699 36.1309996,51.2034396 C35.8200177,51.2623275 35.7363591,51.4174446 35.7532785,51.7040779 C35.8960888,54.2413473 36.0359107,56.7765005 36.173554,59.3145766 C36.1804719,59.4400543 36.1826276,59.5688584 36.2002842,59.6952421 C36.2453489,60.0911246 36.1014606,60.2504804 35.65959,60.2858973 C33.9274666,60.4168786 32.2351286,60.1361461 30.5330524,59.9266702 C30.1118133,59.8762157 29.6970149,59.7834306 29.2731924,59.7333795 C28.9335058,59.6960196 28.8036043,59.5303398 28.7931254,59.2013759 C28.7415635,57.4298686 28.5812452,55.6572628 28.6440113,53.8885668 C28.7287745,51.4655673 28.8488969,49.0318813 29.1866273,46.6339539 C30.6905036,36.0162306 35.7895068,27.5336223 45.090008,21.5976816 C47.9239703,19.7862967 50.9194677,18.2880383 54.0756907,17.0978672 C54.377767,16.983548 54.6702235,16.8423198 54.9651088,16.7162093 C54.9548341,16.6687401 54.9419759,16.6216744 54.9291177,16.5746086" id="Fill-1" fill="url(#linearGradient-3)" mask="url(#mask-2)" transform="translate(47.225893, 36.252349) rotate(9.000000) translate(-47.225893, -36.252349) "></path>
                    </g>
                    <g id="Group-6" transform="translate(54.920758, 65.562562) rotate(-9.000000) translate(-54.920758, -65.562562) translate(4.420758, 37.562562)">
                        <mask id="mask-5" fill="white">
                            <use xlink:href="#path-4"></use>
                        </mask>
                        <g id="Clip-5" opacity="0.5" transform="translate(50.293835, 28.033797) rotate(9.000000) translate(-50.293835, -28.033797) "></g>
                        <path d="M93.1369949,14.7446357 C94.6291648,15.5595539 95.4655058,16.9627025 95.2620056,18.3251575 C95.1081559,19.3393922 94.5472821,20.1727367 93.8118351,20.8409506 C92.7097494,21.8418028 91.5710132,22.8119788 90.3741648,23.7002414 C87.0383715,26.1745834 83.4045202,28.1599549 79.6407171,29.9290576 C75.1079548,32.0597033 70.427131,33.8287531 65.6510728,35.3345385 C62.0895836,36.4561261 58.4911434,37.4795074 54.8849481,38.454714 C46.8266025,40.6331184 38.647953,42.3104477 30.4635891,43.9522799 C28.7176275,44.3023239 26.9679925,44.6295484 25.1661985,44.5178539 C23.038458,44.3841762 21.0372369,43.7395515 19.0553942,43.0347267 C13.3426172,41.0035421 8.62919436,37.6288367 4.98307828,32.840242 C4.57468164,32.3060867 4.24536599,31.7050272 3.94006882,31.105423 C3.41774879,30.0769958 3.57458466,29.0648949 4.19851296,28.1307559 C5.11657398,26.7583171 6.30545355,25.6399756 7.68791906,24.7227885 C10.4666855,22.8758619 13.4294554,21.351142 16.4218292,19.8789894 C16.4756884,19.8524029 16.5425878,19.8575727 16.6070382,19.8475295 C16.636642,19.9000967 16.6808976,19.9451826 16.6792861,19.9844204 C16.6252261,21.126056 17.2878777,21.8934975 18.0476776,22.6406023 C23.0104702,27.5151214 28.9954574,30.5149413 35.7846225,32.0587035 C38.2885566,32.6249911 40.8242877,32.9783951 43.3865307,33.1353337 C44.1817184,33.182962 44.9902911,33.1167427 45.7832455,33.0191689 C48.9116452,32.6382382 52.0596158,32.3296321 55.1635253,31.7965711 C58.3469452,31.2485211 61.496358,30.505639 64.6474036,29.7728989 C66.3288936,29.3835183 67.9898462,28.8829773 69.6359968,28.3561526 C71.5463084,27.7465784 73.4352874,27.0701524 75.3246745,26.3962619 C77.0565447,25.7781064 78.8032168,25.1862346 80.505333,24.4817468 C84.0727756,23.0031535 87.5790986,21.3911334 90.6463913,19.0054155 C90.8765875,18.8265933 91.0970089,18.6362988 91.3110497,18.4392013 C92.6991894,17.1468583 92.9841711,16.5696326 93.1369949,14.7446357" id="Fill-4" fill="url(#linearGradient-6)" mask="url(#mask-5)" transform="translate(49.458871, 29.642376) rotate(9.000000) translate(-49.458871, -29.642376) "></path>
                    </g>
                </g>
            </g>
        </g>
    </g>
</svg>