<?xml version="1.0" encoding="UTF-8"?>
<svg width="378px" height="123px" viewBox="0 0 378 123" version="1.1" xmlns="http://www.w3.org/2000/svg" xmlns:xlink="http://www.w3.org/1999/xlink">
    <!-- Generator: sketchtool 60 (101010) - https://sketch.com -->
    <title>7D79219B-1248-4131-9D37-9D31473C19CB@1,5x</title>
    <desc>Created with sketchtool.</desc>
    <defs>
        <polygon id="path-1" points="0.124381188 75.549867 30.3735545 71.5538778 9.5770198 122.871771 66.9243762 47.5772781 31.4236634 53.2562785 51.1694257 0.255374032"></polygon>
        <linearGradient x1="0.000181829918%" y1="49.9999438%" x2="100.000161%" y2="49.9999438%" id="linearGradient-3">
            <stop stop-color="#E8832F" offset="0%"></stop>
            <stop stop-color="#E8592B" offset="100%"></stop>
        </linearGradient>
        <path d="M80.4751761,0.173108108 L80.4751761,34.8237387 L91.8664119,34.8237387 L91.8664119,21.9992342 L98.0922746,21.9992342 C102.676251,21.9992342 106.08874,21.0151351 108.321051,19.0390541 L108.321051,19.0390541 C110.553361,17.0705405 111.673696,14.3288739 111.673696,10.8279279 L111.673696,10.8279279 C111.673696,7.41621622 110.646973,4.78711712 108.603224,2.93968468 L108.603224,2.93968468 C106.550448,1.09256757 103.472287,0.173108108 99.3580418,0.173108108 L99.3580418,0.173108108 L80.4751761,0.173108108 Z M91.8664119,7.23900901 L95.1167522,7.23900901 C97.2547821,7.23900901 98.7084418,7.61801802 99.4784,8.37572072 L99.4784,8.37572072 C100.256048,9.13436937 100.641863,10.0538288 100.641863,11.1422973 L100.641863,11.1422973 C100.641863,12.2635586 100.196537,13.1827027 99.3068896,13.900991 L99.3068896,13.900991 C98.4175761,14.6186486 96.8693015,14.9818919 94.663403,14.9818919 L94.663403,14.9818919 L91.8664119,14.9818919 L91.8664119,7.23900901 Z M39.1000358,0.173108108 L39.1000358,8.73864865 L50.6965493,8.73864865 L50.6965493,34.8237387 L62.0373015,34.8237387 L62.0373015,8.73864865 L73.6338149,8.73864865 L73.6338149,0.173108108 L39.1000358,0.173108108 Z M0,0.173108108 L0,34.8237387 L19.6013373,34.8237387 C20.4394985,34.8237387 22.133206,34.6622973 24.6901493,34.3476126 L24.6901493,34.3476126 C26.614209,34.113964 28.0511522,33.734955 29.009003,33.2184685 L29.009003,33.2184685 C30.5398925,32.380045 31.7538388,31.2505856 32.6431522,29.8152703 L32.6431522,29.8152703 C33.5244418,28.3793243 33.9690985,26.7664865 33.9690985,24.9676126 L33.9690985,24.9676126 C33.9690985,22.7651351 33.3449075,20.9347297 32.1045493,19.4741892 L32.1045493,19.4741892 C30.8561672,18.0145946 28.9234149,16.9907658 26.2812179,16.3935586 L26.2812179,16.3935586 C28.0173851,15.8206306 29.3426627,15.0544144 30.2403343,14.0703153 L30.2403343,14.0703153 C31.5997134,12.6107207 32.2760597,10.8522072 32.2760597,8.8036036 L32.2760597,8.8036036 C32.2760597,6.35927928 31.3265672,4.31099099 29.4279164,2.65684685 L29.4279164,2.65684685 C27.5299343,1.00427928 24.8101731,0.173108108 21.2693015,0.173108108 L21.2693015,0.173108108 L0,0.173108108 Z M11.4423881,7.19045045 L16.4716896,7.19045045 C18.1904716,7.19045045 19.4050866,7.47297297 20.0981493,8.0459009 L20.0981493,8.0459009 C20.790209,8.61 21.1409194,9.40018018 21.1409194,10.4088739 L21.1409194,10.4088739 C21.1409194,11.4976577 20.790209,12.3285135 20.0981493,12.9093243 L20.0981493,12.9093243 C19.4050866,13.4819369 18.1650627,13.772027 16.394794,13.772027 L16.394794,13.772027 L11.4423881,13.772027 L11.4423881,7.19045045 Z M11.4423881,20.3539189 L17.2068776,20.3539189 C19.2001433,20.3539189 20.5932896,20.6682883 21.3893254,21.2897748 L21.3893254,21.2897748 C22.1843582,21.9106306 22.5775284,22.7332883 22.5775284,23.7574324 L22.5775284,23.7574324 C22.5775284,24.8622973 22.1753313,25.7341441 21.3719403,26.3871622 L21.3719403,26.3871622 C20.5678806,27.0401802 19.1907821,27.3712613 17.2322866,27.3712613 L17.2322866,27.3712613 L11.4423881,27.3712613 L11.4423881,20.3539189 Z" id="path-4"></path>
        <linearGradient x1="0%" y1="50.0002593%" x2="100.000124%" y2="50.0002593%" id="linearGradient-6">
            <stop stop-color="#E8832F" offset="0%"></stop>
            <stop stop-color="#E8592B" offset="100%"></stop>
        </linearGradient>
    </defs>
    <g id="Sites" stroke="none" stroke-width="1" fill="none" fill-rule="evenodd">
        <g id="Landing-page---design-v2.2" transform="translate(-156.000000, -119.000000)">
            <g id="Group-60" transform="translate(156.000000, 118.000000)">
                <g id="Group-3" transform="translate(282.000000, 0.500000)">
                    <mask id="mask-2" fill="white">
                        <use xlink:href="#path-1"></use>
                    </mask>
                    <g id="Clip-2"></g>
                    <polygon id="Fill-1" fill="url(#linearGradient-3)" mask="url(#mask-2)" points="0.124381188 75.549867 30.3735545 71.5538778 9.5770198 122.871771 66.9243762 47.5772781 31.4236634 53.2562785 51.1694257 0.255374032"></polygon>
                </g>
                <g id="Group-6" transform="translate(0.000000, 50.500000)">
                    <mask id="mask-5" fill="white">
                        <use xlink:href="#path-4"></use>
                    </mask>
                    <g id="Clip-5"></g>
                    <path d="M80.4751761,0.173108108 L80.4751761,34.8237387 L91.8664119,34.8237387 L91.8664119,21.9992342 L98.0922746,21.9992342 C102.676251,21.9992342 106.08874,21.0151351 108.321051,19.0390541 L108.321051,19.0390541 C110.553361,17.0705405 111.673696,14.3288739 111.673696,10.8279279 L111.673696,10.8279279 C111.673696,7.41621622 110.646973,4.78711712 108.603224,2.93968468 L108.603224,2.93968468 C106.550448,1.09256757 103.472287,0.173108108 99.3580418,0.173108108 L99.3580418,0.173108108 L80.4751761,0.173108108 Z M91.8664119,7.23900901 L95.1167522,7.23900901 C97.2547821,7.23900901 98.7084418,7.61801802 99.4784,8.37572072 L99.4784,8.37572072 C100.256048,9.13436937 100.641863,10.0538288 100.641863,11.1422973 L100.641863,11.1422973 C100.641863,12.2635586 100.196537,13.1827027 99.3068896,13.900991 L99.3068896,13.900991 C98.4175761,14.6186486 96.8693015,14.9818919 94.663403,14.9818919 L94.663403,14.9818919 L91.8664119,14.9818919 L91.8664119,7.23900901 Z M39.1000358,0.173108108 L39.1000358,8.73864865 L50.6965493,8.73864865 L50.6965493,34.8237387 L62.0373015,34.8237387 L62.0373015,8.73864865 L73.6338149,8.73864865 L73.6338149,0.173108108 L39.1000358,0.173108108 Z M0,0.173108108 L0,34.8237387 L19.6013373,34.8237387 C20.4394985,34.8237387 22.133206,34.6622973 24.6901493,34.3476126 L24.6901493,34.3476126 C26.614209,34.113964 28.0511522,33.734955 29.009003,33.2184685 L29.009003,33.2184685 C30.5398925,32.380045 31.7538388,31.2505856 32.6431522,29.8152703 L32.6431522,29.8152703 C33.5244418,28.3793243 33.9690985,26.7664865 33.9690985,24.9676126 L33.9690985,24.9676126 C33.9690985,22.7651351 33.3449075,20.9347297 32.1045493,19.4741892 L32.1045493,19.4741892 C30.8561672,18.0145946 28.9234149,16.9907658 26.2812179,16.3935586 L26.2812179,16.3935586 C28.0173851,15.8206306 29.3426627,15.0544144 30.2403343,14.0703153 L30.2403343,14.0703153 C31.5997134,12.6107207 32.2760597,10.8522072 32.2760597,8.8036036 L32.2760597,8.8036036 C32.2760597,6.35927928 31.3265672,4.31099099 29.4279164,2.65684685 L29.4279164,2.65684685 C27.5299343,1.00427928 24.8101731,0.173108108 21.2693015,0.173108108 L21.2693015,0.173108108 L0,0.173108108 Z M11.4423881,7.19045045 L16.4716896,7.19045045 C18.1904716,7.19045045 19.4050866,7.47297297 20.0981493,8.0459009 L20.0981493,8.0459009 C20.790209,8.61 21.1409194,9.40018018 21.1409194,10.4088739 L21.1409194,10.4088739 C21.1409194,11.4976577 20.790209,12.3285135 20.0981493,12.9093243 L20.0981493,12.9093243 C19.4050866,13.4819369 18.1650627,13.772027 16.394794,13.772027 L16.394794,13.772027 L11.4423881,13.772027 L11.4423881,7.19045045 Z M11.4423881,20.3539189 L17.2068776,20.3539189 C19.2001433,20.3539189 20.5932896,20.6682883 21.3893254,21.2897748 L21.3893254,21.2897748 C22.1843582,21.9106306 22.5775284,22.7332883 22.5775284,23.7574324 L22.5775284,23.7574324 C22.5775284,24.8622973 22.1753313,25.7341441 21.3719403,26.3871622 L21.3719403,26.3871622 C20.5678806,27.0401802 19.1907821,27.3712613 17.2322866,27.3712613 L17.2322866,27.3712613 L11.4423881,27.3712613 L11.4423881,20.3539189 Z" id="Fill-4" fill="url(#linearGradient-6)" mask="url(#mask-5)"></path>
                </g>
                <g id="Group-59" transform="translate(0.000000, 42.500000)" fill="#FFFFFF">
                    <path d="M204.6315,7.47670737 L204.6315,16.4840495 L216.193833,16.4840495 L216.193833,43.9149126 L227.5005,43.9149126 L227.5005,16.4840495 L239.062833,16.4840495 L239.062833,7.47670737 L204.6315,7.47670737 Z M189.258167,30.0214232 L185.2585,16.9257126 L181.242833,30.0214232 L189.258167,30.0214232 Z M191.653833,37.9093547 L178.8295,37.9093547 L176.988167,43.9149126 L165.4345,43.9149126 L179.221833,7.47670737 L191.611833,7.47670737 L205.3395,43.9149126 L193.486833,43.9149126 L191.653833,37.9093547 Z M118.929833,7.47670737 L133.860167,7.47670737 L139.5475,29.6480653 L145.2515,7.47670737 L160.1135,7.47670737 L160.1135,43.9149126 L150.853833,43.9149126 L150.853833,16.1368863 L143.708167,43.9149126 L135.317833,43.9149126 L128.189833,16.1368863 L128.189833,43.9149126 L118.929833,43.9149126 L118.929833,7.47670737 Z" id="Fill-7"></path>
                    <path d="M285.213533,54.3660158 C284.779533,50.4832263 281.2622,47.3338895 277.356533,47.3338895 C273.450533,47.3338895 270.635867,50.4832263 271.070533,54.3660158 C271.504867,58.2507947 275.0222,61.3988053 278.927867,61.3988053 C282.832867,61.3988053 285.6472,58.2507947 285.213533,54.3660158 M278.434867,56.9848263 C276.980533,56.9848263 275.670533,55.8133579 275.509867,54.3660158 C275.346867,52.92 276.3952,51.7478684 277.848533,51.7478684 C279.3042,51.7478684 280.613533,52.92 280.775533,54.3660158 C280.936867,55.8133579 279.8892,56.9848263 278.434867,56.9848263" id="Fill-9"></path>
                    <path d="M336.3535,54.3660158 C335.9195,50.4832263 332.402167,47.3338895 328.496833,47.3338895 C324.5905,47.3338895 321.777167,50.4832263 322.2115,54.3660158 C322.6455,58.2507947 326.162167,61.3988053 330.067833,61.3988053 C333.9745,61.3988053 336.788167,58.2507947 336.3535,54.3660158 M329.5755,56.9848263 C328.120833,56.9848263 326.8105,55.8133579 326.649833,54.3660158 C326.487167,52.92 327.535833,51.7478684 328.9895,51.7478684 C330.444167,51.7478684 331.7545,52.92 331.9155,54.3660158 C332.077833,55.8133579 331.029167,56.9848263 329.5755,56.9848263" id="Fill-11"></path>
                    <path d="M342.082667,41.6024811 L304.679333,41.6024811 C302.768,41.6024811 301.069667,40.5769074 300.905333,39.3238705 C300.741333,38.0695074 302.17,37.0445968 304.083333,37.0445968 L325.959,37.0445968 C323.904333,35.5160179 322.150333,33.6210442 320.790667,31.4482074 L303.161333,31.4482074 C301.395667,31.4482074 299.827333,30.4236284 299.676,29.1689337 C299.525333,27.9152337 300.845,26.8893284 302.609667,26.8893284 L318.654333,26.8893284 C318.086,25.1183653 317.77,23.2389758 317.709667,21.2939337 L301.933,21.2939337 C300.169,21.2939337 298.6,20.2680284 298.447667,19.01466 C298.296667,17.7612916 299.616667,16.7353863 301.381333,16.7353863 L318.057667,16.7353863 C318.447,14.7508863 319.131667,12.8741495 320.052,11.13966 L300.705333,11.13966 C298.94,11.13966 297.371667,10.1137547 297.22,8.86038632 C297.068,7.60602316 298.387667,6.58011789 300.153,6.58011789 L323.346333,6.58011789 C326.725,3.04946526 331.350667,0.709181053 336.528667,0.282770526 C336.548667,0.273817895 336.570333,0.261217895 336.591667,0.253923158 C337.027667,0.0854810526 334.187333,0.430654737 334.564333,0.319907368 C334.557333,0.280781053 334.559667,0.293049474 334.551667,0.253923158 L290.765667,0.253923158 C289.158333,0.253923158 288.000667,1.54840737 288.179667,3.14694947 L292.767333,44.2116758 L290.747333,44.2116758 L286.482667,6.02737579 L282.339333,6.02737579 L280.848667,7.82685474 L272.521333,7.72771263 C266.213667,7.64879684 260.643,10.7338074 257.702,15.9269968 L253.514,23.3271758 C251.773,26.7643232 251.104333,30.7266916 251.593333,34.7630021 L252.832,45.0286863 C251.351667,45.7160495 250.709,47.4180442 251.305667,49.0646653 L252.199,51.5263074 C252.589667,52.6069232 253.649667,53.3615968 254.767667,53.3615968 L266.299667,53.3615968 C267.237667,53.3615968 268.027667,52.8300758 268.342,51.9948284 L269.374333,49.3116916 C270.555667,46.2349705 273.491667,44.2882705 276.938333,44.2882705 C280.745333,44.2882705 284.408333,46.6507705 286.114333,50.1999916 L286.869,51.7716758 C287.326667,52.7282811 288.31,53.3615968 289.332667,53.3615968 L320.501333,53.3615968 C320.469333,53.0575389 320.451333,52.7624337 320.451333,52.4689863 C320.451333,48.4542284 323.526667,45.3267758 327.684333,45.3267758 L329.030333,45.3267758 C333.492,45.3267758 337.515,48.9273916 338.008667,53.3615968 L340.487333,53.3615968 C342.093667,53.3615968 343.251333,52.0667811 343.072333,50.4682389 L342.082667,41.6024811 Z M281.966,24.0951126 L261.496333,28.5919863 C259.956333,28.9301968 258.542333,27.2388126 259.211333,25.8591126 L263.144333,17.7626179 C264.262,15.4631179 266.542333,13.9985337 269.218,13.8645758 L280.116667,13.3148179 C281.517667,13.2431968 282.824333,14.3596232 282.98,15.7622021 L283.641,21.6968021 C283.77,22.8533495 283.075667,23.8487495 281.966,24.0951126 L281.966,24.0951126 Z" id="Fill-13"></path>
                    <path d="M345.800767,8.56246263 C345.804433,8.56246263 345.9111,8.56412053 345.961433,8.56611 C346.380433,8.58600474 346.786433,8.68846263 347.1661,8.87083105 C347.488433,9.02468368 347.7791,9.23026263 348.0291,9.48060474 C348.324433,9.77670474 348.553767,10.1241995 348.7111,10.5124784 C348.8201,10.7813889 348.8901,11.0599153 348.920767,11.3447416 C349.313433,11.4435521 349.669433,11.5387153 349.9631,11.6219416 C350.5611,11.7920416 350.7451,11.8712889 350.838767,11.9216889 C351.283433,12.1587679 351.675433,12.4611679 351.999767,12.7251047 C352.173767,12.8673521 352.3251,13.0394416 352.5181,13.1574837 C352.7281,13.2877942 352.9541,13.2808311 353.192767,13.2980732 C353.705767,13.3358732 354.223433,13.3262574 354.733433,13.2586153 C354.9771,13.2264521 355.216433,13.1770468 355.455767,13.1220047 C355.7281,13.0596679 355.959767,12.9837363 356.1621,12.7884363 C356.264433,12.6902889 356.371767,12.5964521 356.475767,12.5009574 C356.7801,12.2217679 357.0851,11.9432416 357.3891,11.6640521 C357.963433,11.1384995 358.5381,10.6119521 359.1141,10.0863995 C359.158433,10.04661 359.202767,10.0058258 359.2471,9.96504158 L359.265767,9.94879421 C359.2691,9.94614158 359.272767,9.94282579 359.275433,9.93984158 C359.276767,9.94050474 359.278433,9.94050474 359.279767,9.94116789 C359.5141,10.0114626 359.7661,9.89242579 359.8561,9.66197842 C359.8901,9.57543632 359.8961,9.48458368 359.878767,9.39936789 C359.848433,9.24750474 359.7431,9.11421 359.5871,9.05319947 L345.9781,3.79004684 C345.735767,3.69587842 345.4621,3.81557842 345.3671,4.05763105 C345.297433,4.23635211 345.345433,4.43098895 345.472433,4.55864684 C345.5171,4.60407316 345.572433,4.64087842 345.6361,4.66541526 L345.6811,4.68265737 C345.349767,5.72679947 345.2981,6.75336789 345.528433,7.74047842 C345.593433,8.02066263 345.6811,8.29521 345.790433,8.56312579 C345.793767,8.56312579 345.7971,8.56246263 345.800767,8.56246263" id="Fill-15"></path>
                    <path d="M345.1455,13.0484937 C344.9845,12.9715674 344.842833,12.8697726 344.7235,12.7500726 C344.279167,12.3050937 344.141167,11.6120937 344.4295,11.0152516 C344.7955,10.2582568 345.712167,9.93894632 346.473167,10.30302 C346.6345,10.3796147 346.776167,10.4817411 346.895833,10.6011095 C347.125833,10.83222 347.2745,11.1299779 347.3225,11.4469674 C346.905833,11.3534621 346.214167,11.2055779 345.918833,11.1521937 C345.694167,11.1114095 345.4895,11.2092253 345.3845,11.4071779 C345.274833,11.6147463 345.3065,11.8684042 345.4625,12.0245779 C345.533167,12.0955358 345.627167,12.1436147 345.7345,12.1628463 C346.010833,12.2129147 346.711833,12.3617937 347.127833,12.4499937 C346.7285,13.1240937 345.867167,13.3936674 345.1455,13.0484937 M364.262833,9.81195158 C364.193833,9.74298316 364.104167,9.69092526 364.003167,9.66141474 C363.797167,9.60106737 363.3885,9.49993579 362.9935,9.40212 C362.602167,9.30596211 362.197167,9.20549368 361.999833,9.14779895 C361.8185,9.09408316 361.620833,9.04534105 361.3975,9.04766211 C361.2565,9.04865684 361.030167,9.08877789 360.753167,9.27413053 C360.568167,9.39780947 356.325167,13.2772832 356.3095,13.2915411 C355.957833,13.6178147 355.161833,15.9567726 355.103833,16.1172568 C355.074833,16.0884095 350.9875,12.53322 350.615833,12.3355989 C350.411167,12.2261779 348.5125,11.72682 348.466833,11.7152147 L348.466833,11.6605042 L348.466833,11.65122 C348.466833,11.6462463 348.466167,11.6422674 348.466167,11.6382884 C348.455167,10.9578884 348.1805,10.2993726 347.694167,9.81195158 C347.4865,9.60438316 347.241167,9.42732 346.961167,9.29369368 C346.6615,9.14978842 346.346833,9.06788842 346.032833,9.04169368 C346.0295,9.04103053 346.026167,9.04103053 346.023167,9.04103053 C346.019167,9.04036737 346.014833,9.04036737 346.010833,9.03970421 C344.951833,8.96145158 343.902167,9.52248316 343.4145,10.5294884 C342.914167,11.5650095 343.154833,12.7669832 343.924833,13.5398937 C344.132167,13.7474621 344.3775,13.9245253 344.6575,14.05782 C345.978167,14.6894779 347.569167,14.1354095 348.204167,12.8213621 C348.224167,12.7809095 348.242833,12.7394621 348.260167,12.6990095 C348.6975,12.7964937 349.984833,13.1549305 350.278833,13.3233726 C350.505833,13.4523568 354.2225,16.6693358 354.596167,16.9680884 C354.794167,17.1265832 354.9685,17.2907147 355.237833,17.2830884 C355.464833,17.27712 355.676833,17.1620621 355.782833,16.9588042 C355.884167,16.7621779 356.841167,14.2507989 356.878167,14.1987411 C356.9375,14.1175042 361.215833,10.2443305 361.3475,10.12662 C361.438167,10.0463779 361.649833,10.1126937 361.649833,10.1126937 C361.743167,10.1382253 363.629833,10.6193463 363.7785,10.6631147 C363.901167,10.6989253 364.033167,10.6793621 364.149833,10.6080726 C364.279833,10.5284937 364.3735,10.3958621 364.3995,10.2539463 C364.429833,10.0874937 364.380833,9.93098842 364.262833,9.81195158" id="Fill-17"></path>
                    <path d="M341.5726,37.3978279 L341.410267,39.5988489 C341.3996,39.7377805 341.535267,39.8428911 341.667933,39.7981279 L343.9816,39.0288647 C344.176933,38.9642068 344.313933,38.7881384 344.329267,38.5838858 L344.485267,36.4694068 L342.180933,37.2363489 C341.980267,37.3029963 341.776933,37.3567121 341.5726,37.3978279" id="Fill-19"></path>
                    <path d="M344.750667,22.48974 L345.554333,24.8817505 L351.073333,23.0464611 C351.721667,22.8306032 352.393667,22.74804 353.070333,22.8004295 C353.619667,22.8428716 354.153,22.9728505 354.659,23.1867189 L353.452,19.5953874 C353.342333,19.2717663 352.991,19.0973558 352.664667,19.2057821 L345.143667,21.7072137 C344.817667,21.8149768 344.642333,22.1654558 344.750667,22.48974" id="Fill-21"></path>
                    <path d="M356.9323,30.2008737 C357.380633,29.2160842 357.4713,28.0671632 357.099633,26.9603526 L356.9163,26.4172263 C356.5583,25.3505368 355.8333,24.5096526 354.9273,23.9857579 C353.855633,23.3663684 352.531967,23.1903 351.2633,23.6117368 L345.744633,25.4476895 L344.5703,25.8382895 L344.474967,25.5554526 L344.3803,25.2729474 L342.916633,20.9206421 L345.420633,20.0814158 C345.645967,20.3287737 346.004633,20.4338842 346.342633,20.3214789 L348.428633,19.6278158 C348.885633,19.4759526 349.132633,18.9842211 348.979633,18.5292947 C348.826967,18.0747 348.331967,17.829 347.874967,17.9808632 L341.9513,19.9557474 C341.641633,20.0592 341.4673,20.3967474 341.559967,20.7057789 C341.5643,20.7197053 341.567633,20.7333 341.572633,20.7472263 L343.222967,25.6572474 L343.317967,25.9397526 L343.4133,26.2222579 L338.974967,27.6984474 C336.634967,28.4769947 335.372967,30.9946737 336.1553,33.3216947 L336.337967,33.8658158 C337.078633,36.0698211 339.3883,37.3132421 341.618967,36.7767474 C341.7433,36.7472368 341.8673,36.7124211 341.990633,36.6713053 L344.5333,35.8254474 L350.5703,33.8174053 C350.5423,33.7500947 350.517633,33.6814579 350.4943,33.6118263 C350.335967,33.1416474 350.274967,32.6532316 350.312967,32.1624947 C350.3503,31.6880053 350.477633,31.2307579 350.691967,30.8036842 C350.905967,30.3762789 351.1973,30.0002684 351.555967,29.6852684 C351.926967,29.3593263 352.355967,29.1146211 352.827967,28.9571211 C353.301633,28.7996211 353.792633,28.7389421 354.2863,28.7767421 C354.7633,28.8138789 355.222967,28.9405421 355.651967,29.1537474 C356.081967,29.3666211 356.4603,29.6554263 356.776633,30.0125368 C356.8303,30.0735474 356.882633,30.1368789 356.9323,30.2008737" id="Fill-23"></path>
                    <path d="M354.325533,33.4098284 C354.107867,33.4827758 353.8832,33.4781337 353.680533,33.4114863 C353.552867,33.3693758 353.433867,33.3020653 353.330867,33.2132021 C353.250533,33.1435705 353.180867,33.0613389 353.1242,32.9675021 C353.087533,32.9054968 353.055533,32.8388495 353.0322,32.7682232 C352.8532,32.2353758 353.1422,31.6594232 353.6772,31.4813653 C354.212867,31.3036389 354.7922,31.5904547 354.9712,32.1233021 C354.986867,32.1717126 354.9992,32.21946 355.007867,32.2678705 C355.027533,32.3806074 355.028533,32.4930126 355.0112,32.6017705 C354.988533,32.7456758 354.935867,32.8816232 354.856533,33.0026495 C354.734867,33.1870074 354.552533,33.3348916 354.325533,33.4098284 M356.612533,30.7847179 C355.865533,29.6205442 354.394867,29.0644863 353.018533,29.5220653 C351.395533,30.0618758 350.519867,31.8083021 351.0622,33.4237547 C351.085533,33.4930547 351.1112,33.5610284 351.138867,33.6276758 C351.178533,33.7211811 351.2212,33.8120337 351.2682,33.8995705 C351.316867,33.9900916 351.3692,34.0769653 351.425867,34.1615179 C352.182867,35.28756 353.629533,35.8197442 354.984533,35.36946 C356.6072,34.8296495 357.4832,33.0835547 356.940533,31.4684337 C356.9322,31.4432337 356.923867,31.41936 356.9152,31.3951547 C356.874533,31.2837442 356.827867,31.1766442 356.776867,31.0725284 C356.726867,30.9730547 356.671533,30.8765653 356.612533,30.7847179" id="Fill-25"></path>
                    <path d="M325.698533,27.9248495 L325.7422,26.9231495 C325.747533,26.7918442 325.859533,26.6900495 325.991533,26.6956863 C326.1242,26.7009916 326.226533,26.8127337 326.220867,26.9437074 L326.176867,27.9454074 C326.1742,28.01106 326.1452,28.0694179 326.099533,28.1105337 C326.0542,28.1519811 325.993867,28.1761863 325.927533,28.1732021 C325.7952,28.1675653 325.692867,28.0561547 325.698533,27.9248495 L325.698533,27.9248495 Z M326.598533,26.1429442 C326.6042,26.0113074 326.7162,25.9091811 326.847867,25.9148179 C326.9802,25.9207863 327.0822,26.0318653 327.076867,26.1635021 L327.0332,27.1645389 C327.030533,27.2305232 327.000867,27.2888811 326.955867,27.3303284 C326.910533,27.3714442 326.8492,27.3953179 326.783867,27.3929968 C326.650867,27.3863653 326.548867,27.2759495 326.5542,27.1439811 L326.598533,26.1429442 Z M326.893867,28.9928653 L327.002867,28.8937232 L328.775533,30.8172126 L330.0942,29.6145758 L328.9812,28.4069653 C329.004867,28.3751337 329.028867,28.3409811 329.049867,28.3051705 C329.0722,28.2680337 329.091867,28.2289074 329.105533,28.1897811 C329.152533,28.0601337 329.138533,27.9318126 328.963867,27.8618495 C328.834533,27.8101232 328.7392,27.7524284 328.669533,27.6967232 C328.6342,27.6692021 328.6052,27.6416811 328.581533,27.6154863 C328.548533,27.5796758 328.525533,27.5458547 328.509867,27.5193284 L330.124867,26.0457916 C330.2042,25.9741705 330.208533,25.8531442 330.136867,25.7748916 L330.121867,25.7583126 L328.169533,23.6405179 L328.153533,23.6239389 C328.081533,23.5456863 327.9602,23.5407126 327.8822,23.6123337 L324.650533,26.5594074 C324.1502,27.0163232 324.116533,27.7895653 324.5752,28.2866021 L325.1572,28.9175968 C325.6162,29.4156284 326.3932,29.4494495 326.893867,28.9928653 L326.893867,28.9928653 Z" id="Fill-27"></path>
                    <path d="M332.687467,29.8544068 L331.740467,28.8261805 C331.632133,28.7094647 331.449467,28.7011753 331.332133,28.8086068 L330.432467,29.6286016 L330.344467,29.7098384 L330.2558,29.7904121 L328.9378,30.9923858 L328.849133,31.0726279 L328.761467,31.1532016 L328.681133,31.2261489 C328.5638,31.3332489 328.5558,31.5156174 328.664133,31.6323332 L329.611133,32.6602279 C329.719467,32.7769437 329.902133,32.7849016 330.019467,32.6778016 L332.670133,30.2605911 C332.7878,30.1524963 332.795467,29.9714542 332.687467,29.8544068" id="Fill-29"></path>
                    <path d="M331.291333,22.4133111 L330.029667,23.5628953 C329.546,23.1895374 328.872667,23.1620163 328.359,23.4942584 L330.284667,25.5832058 C330.662,25.1030795 330.692,24.4336216 330.36,23.9213321 L331.621,22.7714163 C331.720333,22.6808953 331.727333,22.5267111 331.636,22.4279005 C331.545,22.3287584 331.391,22.3224584 331.291333,22.4133111" id="Fill-31"></path>
                    <path d="M370.514,24.9979358 L369.565667,23.0651621 C369.549,23.0761042 369.531333,23.08572 369.511667,23.0950042 L368.242,23.7114095 L368.358,23.9484884 C368.419,24.0721674 368.436333,24.2114305 368.407333,24.3384253 C368.374,24.4836568 368.282667,24.6020305 368.155667,24.6627095 L367.635667,24.9163674 C367.508667,24.9773779 367.358667,24.9767147 367.223,24.9133832 C367.104333,24.8576779 367.005333,24.7585358 366.944667,24.6338621 L366.828333,24.3974463 L364.260667,25.6441832 L364.376667,25.8809305 C364.437667,26.0052726 364.454667,26.1432095 364.425667,26.2708674 C364.393333,26.4154358 364.301333,26.5348042 364.174667,26.5958147 L363.654333,26.8481463 C363.527,26.9101516 363.377333,26.9088253 363.241667,26.8454937 C363.123333,26.7904516 363.023667,26.6913095 362.963333,26.5669674 L362.847,26.3305516 L361.576667,26.9466253 C361.557667,26.9559095 361.539333,26.9638674 361.52,26.9704989 L362.467333,28.9032726 C362.543,29.0551358 362.727333,29.1194621 362.881,29.0441937 L370.372333,25.4080989 C370.525,25.3341568 370.588667,25.1497989 370.514,24.9979358" id="Fill-33"></path>
                    <path d="M362.497067,23.2837058 L362.442733,23.1729584 L362.1544,22.5844058 C362.321067,22.6759216 362.563733,22.6782426 362.785067,22.5701479 C362.880067,22.5240584 362.9624,22.4620532 363.026733,22.39209 C363.106067,22.3052163 363.215733,22.2518321 363.3334,22.2425479 C363.429067,22.2359163 363.528733,22.2097216 363.624067,22.1636321 C363.7184,22.1168795 363.800733,22.0552058 363.865067,21.9849111 C363.944733,21.8980374 364.054733,21.8453163 364.172067,21.8357005 C364.267733,21.8287374 364.366733,21.8025426 364.4624,21.7567847 C364.557067,21.7100321 364.6394,21.6480268 364.703733,21.5777321 C364.783067,21.49119 364.892733,21.4384689 365.0104,21.4291847 C365.105733,21.42189 365.2054,21.3956953 365.300067,21.3496058 C365.522067,21.2415111 365.670067,21.0505216 365.700067,20.8635111 L365.988733,21.4514005 L366.043067,21.5628111 L366.097733,21.6742216 L362.551733,23.3951163 L362.497067,23.2837058 Z M361.409067,26.7457216 C361.4294,26.7410795 361.4484,26.7337847 361.468067,26.7245005 L362.737733,26.1077637 L362.513067,25.64919 C362.452067,25.5245163 362.4344,25.3862479 362.4634,25.25859 C362.496733,25.1143532 362.5884,24.9953163 362.714733,24.9339742 L363.2354,24.6816426 C363.362067,24.6196374 363.512733,24.6212953 363.6474,24.6842953 C363.7664,24.7393374 363.865067,24.8381479 363.926067,24.96249 L364.1514,25.4220584 L366.719067,24.1756532 L366.493733,23.7164163 C366.433067,23.5927374 366.415733,23.4534742 366.444733,23.3264795 C366.477733,23.1812479 366.569067,23.0628742 366.6964,23.0008689 L367.216733,22.7488689 C367.3434,22.6878584 367.493067,22.68819 367.629067,22.7518532 C367.747733,22.8072268 367.846733,22.9060374 367.907067,23.0300479 L368.1324,23.4892847 L369.403067,22.8725479 C369.421733,22.8635953 369.439733,22.8526532 369.455733,22.8403847 C369.570067,22.7528479 369.610733,22.5956795 369.545067,22.4620532 L368.705067,20.7497795 C368.630067,20.5972532 368.445733,20.5339216 368.2924,20.6085268 L366.545067,21.4567058 L366.490067,21.3459584 L366.435733,21.2345479 L366.052733,20.4550058 C365.9254,20.1953795 365.609067,20.08629 365.348067,20.2136163 L361.855733,21.9086479 C361.5944,22.0349795 361.486067,22.3503111 361.6134,22.6099374 L361.995067,23.3894795 L362.049733,23.50089 L362.1044,23.6116374 L360.357067,24.4601479 C360.203733,24.53409 360.140067,24.7187795 360.2144,24.8706426 L361.054733,26.5835795 C361.1204,26.7168742 361.270067,26.7815321 361.409067,26.7457216 L361.409067,26.7457216 Z" id="Fill-35"></path>
                    <path d="M368.0472,24.4410158 C368.169867,24.381 368.2092,24.2095737 368.1342,24.0567158 L368.017867,23.8199684 L367.9642,23.7088895 L367.909533,23.5981421 L367.6842,23.1385737 C367.609533,22.9860474 367.4492,22.9111105 367.3252,22.9707947 L366.804867,23.2241211 C366.681533,23.2838053 366.6432,23.4555632 366.717867,23.6074263 L366.942533,24.0669947 L366.9972,24.1784053 L367.051867,24.2888211 L367.167533,24.5262316 C367.242533,24.6784263 367.403533,24.7536947 367.526533,24.6940105 L368.0472,24.4410158 Z" id="Fill-37"></path>
                    <path d="M364.065433,26.3738226 C364.188767,26.3138068 364.227767,26.1420489 364.153433,25.9895226 L364.0371,25.7527753 L363.982767,25.6413647 L363.9281,25.5302858 L363.702767,25.0713805 C363.6281,24.9188542 363.467433,24.8439174 363.344767,24.9036016 L362.8241,25.1559332 C362.7011,25.2159489 362.661767,25.3877068 362.736433,25.5402332 L362.961433,25.9998016 L363.016433,26.1102174 L363.0701,26.2219595 L363.186433,26.4583753 C363.261767,26.6112332 363.421767,26.6858384 363.5451,26.6261542 L364.065433,26.3738226 Z" id="Fill-39"></path>
                    <path d="M367.7741,8.12142947 L370.295433,13.0125505 L372.777767,11.7469137 L370.2561,6.85546105 C369.904433,6.17340316 369.063767,5.90382947 368.378433,6.25364526 C367.6931,6.60312947 367.422767,7.43904 367.7741,8.12142947" id="Fill-41"></path>
                    <path d="M377.542967,21.8149105 C377.635633,21.7674947 377.700633,21.6872526 377.7303,21.5957368 C377.7593,21.5042211 377.754633,21.4011 377.706633,21.3092526 L376.178967,18.3456 L375.487967,18.6984 L376.832967,21.3082579 L375.580633,21.9472105 L374.6343,20.8367526 C374.679967,20.8188474 374.719967,20.7843632 374.743633,20.7333 L374.919967,20.3476737 C374.945633,20.2919684 374.943967,20.2283053 374.915633,20.1739263 L374.432633,19.2365526 L373.622967,19.6500316 L373.569967,19.6768895 L373.515967,19.7044105 C373.3043,19.8121737 373.0823,19.8927474 372.8563,19.9448053 L375.1923,22.6869632 C375.3063,22.8202579 375.496967,22.8580579 375.6533,22.7784789 L377.542967,21.8149105 Z" id="Fill-43"></path>
                    <path d="M373.0817,17.9214442 L372.479033,16.7519653 C372.3817,16.5619705 372.457033,16.3288705 372.6477,16.2310547 C372.8387,16.1339021 373.073033,16.2091705 373.170367,16.3988337 L373.773033,17.5689758 C373.822367,17.6634758 373.8277,17.7692495 373.797033,17.8634179 C373.767033,17.9569232 373.700367,18.0394863 373.605033,18.08856 C373.414367,18.1860442 373.180033,18.1111074 373.0817,17.9214442 M374.657367,15.6405126 L375.2597,16.8099916 C375.309367,16.9051547 375.314367,17.0109284 375.284033,17.1050968 C375.2537,17.1986021 375.187367,17.2811653 375.092033,17.3299074 C374.901033,17.4277232 374.6667,17.3524547 374.5687,17.1627916 L373.9657,15.9933126 C373.868367,15.8033179 373.9437,15.5702179 374.1347,15.4733968 C374.325367,15.3759126 374.560033,15.4508495 374.657367,15.6405126 M372.568367,19.6071916 C372.827367,19.56906 373.085367,19.4891495 373.332367,19.3641442 C373.334367,19.3624863 373.336367,19.3618232 373.338367,19.3604968 L374.255367,18.8929705 L376.002367,18.0016863 L376.201367,17.9008863 C376.3127,17.8435232 376.390033,17.7476968 376.425367,17.6382758 C376.4607,17.52786 376.454367,17.4048442 376.3977,17.2940968 L373.763367,12.1838021 C373.649367,11.9626389 373.376367,11.8754337 373.1537,11.9885021 L372.9547,12.0906284 L370.4727,13.3562653 L370.291367,13.4494389 C369.938033,13.6288232 369.647033,13.8808232 369.4267,14.1782495 C369.406033,14.2061021 368.859367,14.0008547 368.797033,13.9766495 C368.350367,13.8038968 367.955033,14.1009916 367.574367,14.2956284 C367.311033,14.4295863 367.048033,14.5638758 366.785367,14.6978337 C366.669033,14.7578495 366.586367,14.8603074 366.549033,14.9776863 C366.502033,15.1215916 366.522033,15.2870495 366.627367,15.4190179 C366.770033,15.6007232 367.0267,15.6488021 367.233367,15.5436916 L368.510033,14.8924705 C368.677367,14.9451916 368.8447,14.9985758 369.0127,15.0506337 C368.870367,15.6129916 368.9247,16.2264126 369.2117,16.7824705 L369.951033,18.2175442 C369.9097,18.2656232 369.879033,18.3219916 369.859367,18.3826705 C369.821367,18.4997179 369.827367,18.63036 369.8877,18.7460811 C369.892033,18.7547021 370.230033,19.4099021 370.230033,19.4099021 C370.3497,19.6413442 370.643367,19.7358442 370.877033,19.6174705 C370.894367,19.6085179 370.910033,19.5982389 370.9257,19.58796 C370.944033,19.5813284 370.962033,19.5733705 370.979033,19.5647495 L371.2307,19.4364284 C371.647367,19.6128284 372.1107,19.6745021 372.568367,19.6071916" id="Fill-45"></path>
                    <path d="M339.760067,9.71423526 C339.702733,9.65720368 339.6094,9.65720368 339.5514,9.71423526 L337.884067,11.3691458 L337.884733,11.3691458 C338.0404,11.4318142 338.1794,11.5239932 338.298733,11.6433616 C338.4064,11.7511247 338.4924,11.8754668 338.554733,12.0130721 L340.2094,10.37043 C340.267067,10.3130668 340.267067,10.2195616 340.2094,10.1628616 L339.760067,9.71423526 Z" id="Fill-47"></path>
                    <path d="M337.996429,11.7823926 C338.025257,11.8065979 338.025257,11.8463874 337.996429,11.8715874 L337.846059,11.9989137 C337.817231,12.0241137 337.770484,12.0241137 337.741657,11.9989137 C337.71205,11.9743768 337.71205,11.9342558 337.741657,11.9097189 L337.891248,11.7817295 C337.906051,11.7694611 337.92514,11.7638242 337.943839,11.7638242 C337.963317,11.7638242 337.982015,11.7701242 337.996429,11.7823926 M338.146799,11.9365768 C338.166277,11.9365768 338.184587,11.9425453 338.19939,11.9551453 C338.228607,11.9800137 338.228607,12.0198032 338.19939,12.04434 L338.049409,12.1723295 C338.019803,12.1971979 337.973056,12.1971979 337.943839,12.1723295 C337.915011,12.1477926 337.915011,12.1076716 337.943839,12.0831347 L338.094988,11.9551453 C338.108623,11.9425453 338.128101,11.9365768 338.146799,11.9365768 M338.35015,12.1096611 C338.368849,12.1096611 338.388327,12.1159611 338.401961,12.1285611 C338.430789,12.1530979 338.430789,12.1928874 338.401961,12.2174242 L338.251591,12.3457453 C338.222764,12.3696189 338.176016,12.3696189 338.146799,12.3450821 C338.117582,12.3208768 338.117582,12.2804242 338.146799,12.2562189 L338.297949,12.1285611 C338.312752,12.1159611 338.330672,12.1096611 338.35015,12.1096611 M338.452215,11.7180663 C338.307688,11.5950505 338.138619,11.5055242 337.959421,11.4504821 C337.812167,11.4050558 337.65868,11.3821768 337.504415,11.3821768 C337.315478,11.3821768 337.125762,11.4163295 336.95007,11.48364 C336.868652,11.5148084 336.849564,11.6059926 336.912283,11.66004 L337.742825,12.3686242 C337.842942,12.4541716 337.842942,12.5937663 337.742046,12.6789821 L336.911114,13.3855768 C336.847226,13.4396242 336.866704,13.53114 336.948902,13.56264 C337.124204,13.6309453 337.311972,13.6644377 337.501298,13.6644377 C337.844501,13.6650979 338.187703,13.5536874 338.449877,13.3311979 C338.842165,12.9982926 338.939944,12.5058979 338.743606,12.0927505 C338.679328,11.9554768 338.581549,11.8281505 338.452215,11.7180663" id="Fill-49"></path>
                    <path d="M337.185867,12.2590374 L336.731867,11.8067637 C336.6812,11.7553689 336.596867,11.7596795 336.5522,11.8153847 C336.285533,12.1506111 336.2342,12.5999005 336.399533,12.9788953 C336.4332,13.0564847 336.535533,13.0750532 336.5952,13.0153689 L337.185867,12.4291374 C337.2332,12.3820532 337.2332,12.3067847 337.185867,12.2590374" id="Fill-51"></path>
                    <path d="M332.562167,19.9034905 C332.616833,20.0032958 332.872167,20.2088747 332.9635,20.2914379 L334.229833,21.4526274 C334.4245,21.6893747 334.215167,21.6041589 334.338833,22.1048432 C334.428833,22.46958 334.754167,22.8346484 335.125833,22.9331274 C335.224167,22.9593221 335.381833,23.0011011 335.486167,22.9812063 C335.746167,22.9318011 335.610167,22.6924011 335.396167,22.5322484 C335.088833,22.3018011 335.099167,21.9695589 335.2885,21.6625168 C335.3755,21.5209326 335.637167,21.4068695 335.8735,21.4450011 C336.128833,21.48678 336.2185,21.6532326 336.364833,21.7676274 C336.734833,22.0551063 336.852167,21.4440063 336.339167,20.9327116 C336.1305,20.7248116 335.7855,20.5954958 335.464167,20.6021274 C335.0095,20.61108 335.3315,20.8196432 334.6915,20.2430274 C334.4855,20.0583379 334.047833,19.6113695 333.863167,19.4608326 L333.4305,19.0758695 C333.3095,18.9462221 333.492167,18.8862063 333.358833,18.4316116 C333.077167,17.4766642 331.9135,17.3821642 332.1075,17.8112274 C332.149833,17.9044011 332.232833,17.9252905 332.301167,18.0052011 C332.346833,18.0589168 332.451167,18.1627011 332.489833,18.2300116 C332.673833,18.5503168 332.4155,19.1816432 331.861167,19.0970905 C331.6045,19.0576326 331.511833,18.9259958 331.361833,18.7850747 C331.020833,18.4657642 330.828833,19.0188379 331.3345,19.5825221 C331.5995,19.8766326 332.039833,19.9943432 332.562167,19.9034905" id="Fill-53"></path>
                    <path d="M324.6777,17.4234458 C324.696367,17.5162879 324.696367,17.4310721 324.6557,17.5106511 C324.6237,17.5726563 324.562033,17.5885721 324.537033,17.7507142 C324.412033,18.56673 325.817367,17.7361247 326.123033,17.5232511 C326.3517,17.3637616 326.547033,17.1890195 326.760033,17.0119563 C328.351367,15.6833195 329.140367,15.0241405 331.067367,14.2528879 C331.4847,14.0861037 332.2817,13.8931247 332.278377,13.4047089 C332.275367,13.0986616 331.928367,13.0608616 331.739033,13.0701458 C331.293367,13.0930247 331.5727,13.2932984 331.085367,12.99753 C330.182033,12.4487668 330.5487,12.4537405 329.991033,11.9179089 C329.595033,11.5369247 329.223033,11.3101247 328.8047,11.1280879 C327.484033,10.5501458 325.717033,10.8465774 324.658033,12.0094247 C324.324367,12.3758195 324.053367,12.8091932 323.918033,13.2004563 C323.781367,13.5956984 323.6567,14.0254247 323.668367,14.5038932 C323.6987,15.7410142 324.007033,15.9154247 324.3397,16.6836932 C324.4517,16.94133 324.5187,17.1711142 324.6777,17.4234458" id="Fill-55"></path>
                    <path d="M235.157533,59.63013 L237.0452,59.4431195 C237.158533,60.0714616 237.386533,60.53103 237.732533,60.8264668 C238.077867,61.1215721 238.5442,61.2677984 239.1312,61.2677984 C239.7512,61.2677984 240.2202,61.1368247 240.5342,60.8755405 C240.849533,60.6135932 241.007867,60.3068826 241.007867,59.9560721 C241.007867,59.7299353 240.940867,59.5386142 240.808867,59.3791247 C240.677533,59.2219563 240.4452,59.0843511 240.114867,58.96863 C239.889533,58.8883879 239.376533,58.7507826 238.573533,58.5515037 C237.539867,58.2935353 236.814867,57.9788668 236.3982,57.6031879 C235.8112,57.0773037 235.518867,56.43603 235.518867,55.6793668 C235.518867,55.1929405 235.6572,54.7356932 235.9312,54.3116037 C236.207867,53.8881774 236.605533,53.5665458 237.1252,53.3443879 C237.6452,53.1218984 238.269867,53.0114826 239.0062,53.0114826 C240.204867,53.0114826 241.1082,53.2757511 241.712867,53.8056142 C242.319533,54.3361405 242.636533,55.0420721 242.667533,55.9277195 L240.726533,55.9943668 C240.6442,55.5019721 240.4682,55.1481774 240.197867,54.9333142 C239.927867,54.7184511 239.521867,54.6093616 238.9822,54.6093616 C238.4242,54.6093616 237.986533,54.7250826 237.671867,54.9551984 C237.468867,55.1047405 237.366533,55.3016984 237.366533,55.5503826 C237.366533,55.7768511 237.461867,55.9701616 237.653867,56.1296511 C237.897533,56.3358932 238.4882,56.5490984 239.427867,56.7712563 C240.3672,56.9910932 241.0612,57.2215405 241.509867,57.45663 C241.9602,57.6947037 242.312867,58.0163353 242.5672,58.42683 C242.821533,58.8373247 242.948867,59.3433142 242.948867,59.94513 C242.948867,60.4909089 242.797533,61.0041932 242.4912,61.4810037 C242.185533,61.9581458 241.754867,62.3132668 241.1972,62.5443774 C240.6392,62.7771458 239.9432,62.8928668 239.1112,62.8928668 C237.899533,62.8928668 236.9692,62.6150037 236.319867,62.0579511 C235.6702,61.5028879 235.284533,60.6931721 235.157533,59.63013 L235.157533,59.63013 Z M227.541533,62.7191195 L227.541533,53.2644774 L229.4832,53.2644774 L229.4832,61.1076458 L234.2892,61.1076458 L234.2892,62.7191195 L227.541533,62.7191195 Z M218.558867,62.7191195 L218.558867,53.1848984 L225.654533,53.1848984 L225.654533,54.7957089 L220.499867,54.7957089 L220.499867,56.9138353 L225.292867,56.9138353 L225.292867,58.5243142 L220.499867,58.5243142 L220.499867,61.1076458 L225.841867,61.1076458 L225.841867,62.7191195 L218.558867,62.7191195 Z M208.890867,62.7191195 L208.890867,53.1848984 L210.769867,53.1848984 L214.714533,59.5744247 L214.714533,53.1848984 L216.5082,53.1848984 L216.5082,62.7191195 L214.5692,62.7191195 L210.684533,56.4516142 L210.684533,62.7191195 L208.890867,62.7191195 Z M199.222867,62.7191195 L199.222867,53.1848984 L201.101533,53.1848984 L205.046533,59.5744247 L205.046533,53.1848984 L206.8402,53.1848984 L206.8402,62.7191195 L204.9012,62.7191195 L201.016533,56.4516142 L201.016533,62.7191195 L199.222867,62.7191195 Z M190.402867,57.9453774 C190.402867,59.0266563 190.654533,59.8453247 191.156867,60.4043668 C191.658533,60.9614195 192.296867,61.2409405 193.068533,61.2409405 C193.8432,61.2409405 194.476867,60.9640721 194.974533,60.41133 C195.469533,59.8565984 195.717533,59.0266563 195.717533,57.9188511 C195.717533,56.8239774 195.4762,56.0079616 194.992533,55.4704721 C194.5102,54.9309932 193.869867,54.6624142 193.068533,54.6624142 C192.269867,54.6624142 191.625533,54.9353037 191.136867,55.4790932 C190.6482,56.0252037 190.402867,56.8468563 190.402867,57.9453774 L190.402867,57.9453774 Z M188.407867,58.0093721 C188.407867,57.0375142 188.5552,56.2205037 188.847533,55.5590037 C189.063867,55.0735721 189.362533,54.6358879 189.739867,54.2495984 C190.116533,53.8633089 190.529867,53.5774879 190.977867,53.3881563 C191.576533,53.1381458 192.265533,53.0114826 193.046533,53.0114826 C194.460867,53.0114826 195.590533,53.4488353 196.440867,54.3205563 C197.2882,55.1952616 197.712533,56.4095037 197.712533,57.9656037 C197.712533,59.5077774 197.289867,60.7150563 196.449533,61.5851195 C195.608533,62.4571721 194.480867,62.8928668 193.073533,62.8928668 C191.647867,62.8928668 190.511867,62.4594932 189.670867,61.5920826 C188.829533,60.72633 188.407867,59.5326458 188.407867,58.0093721 L188.407867,58.0093721 Z M185.0232,62.7194511 L186.9642,62.7194511 L186.9642,53.1848984 L185.0232,53.1848984 L185.0232,62.7194511 Z M175.6522,59.63013 L177.539533,59.4431195 C177.6532,60.0714616 177.8812,60.53103 178.226867,60.8264668 C178.572533,61.1215721 179.0392,61.2677984 179.625867,61.2677984 C180.2462,61.2677984 180.714533,61.1368247 181.028867,60.8755405 C181.344533,60.6135932 181.502533,60.3068826 181.502533,59.9560721 C181.502533,59.7299353 181.435533,59.5386142 181.303533,59.3791247 C181.1722,59.2219563 180.9402,59.0843511 180.609533,58.96863 C180.384533,58.8883879 179.871533,58.7507826 179.067867,58.5515037 C178.034867,58.2935353 177.309533,57.9788668 176.892867,57.6031879 C176.305867,57.0773037 176.013533,56.43603 176.013533,55.6793668 C176.013533,55.1929405 176.151867,54.7356932 176.4262,54.3116037 C176.702867,53.8881774 177.1002,53.5665458 177.6202,53.3443879 C178.139533,53.1218984 178.764533,53.0114826 179.500867,53.0114826 C180.699533,53.0114826 181.602867,53.2757511 182.207533,53.8056142 C182.814533,54.3361405 183.1312,55.0420721 183.1622,55.9277195 L181.2212,55.9943668 C181.138867,55.5019721 180.962867,55.1481774 180.692533,54.9333142 C180.4222,54.7184511 180.0162,54.6093616 179.476867,54.6093616 C178.918867,54.6093616 178.481533,54.7250826 178.166533,54.9551984 C177.963533,55.1047405 177.8612,55.3016984 177.8612,55.5503826 C177.8612,55.7768511 177.956533,55.9701616 178.148867,56.1296511 C178.3922,56.3358932 178.9832,56.5490984 179.922533,56.7712563 C180.861533,56.9910932 181.555533,57.2215405 182.004533,57.45663 C182.4552,57.6947037 182.807533,58.0163353 183.0622,58.42683 C183.316533,58.8373247 183.443533,59.3433142 183.443533,59.94513 C183.443533,60.4909089 183.2922,61.0041932 182.985867,61.4810037 C182.6802,61.9581458 182.249533,62.3132668 181.6922,62.5443774 C181.1342,62.7771458 180.4382,62.8928668 179.6062,62.8928668 C178.3942,62.8928668 177.463867,62.6150037 176.814867,62.0579511 C176.164867,61.5028879 175.7792,60.6931721 175.6522,59.63013 L175.6522,59.63013 Z M166.722867,59.63013 L168.610533,59.4431195 C168.723867,60.0714616 168.9522,60.53103 169.297867,60.8264668 C169.6432,61.1215721 170.109533,61.2677984 170.696533,61.2677984 C171.316867,61.2677984 171.785533,61.1368247 172.099867,60.8755405 C172.414867,60.6135932 172.573533,60.3068826 172.573533,59.9560721 C172.573533,59.7299353 172.506533,59.5386142 172.3742,59.3791247 C172.242867,59.2219563 172.010867,59.0843511 171.6802,58.96863 C171.4552,58.8883879 170.9422,58.7507826 170.138533,58.5515037 C169.105867,58.2935353 168.380533,57.9788668 167.963867,57.6031879 C167.376533,57.0773037 167.0842,56.43603 167.0842,55.6793668 C167.0842,55.1929405 167.222533,54.7356932 167.4972,54.3116037 C167.773533,53.8881774 168.170867,53.5665458 168.690867,53.3443879 C169.210533,53.1218984 169.835533,53.0114826 170.571533,53.0114826 C171.7702,53.0114826 172.673533,53.2757511 173.2782,53.8056142 C173.885533,54.3361405 174.201867,55.0420721 174.2332,55.9277195 L172.291867,55.9943668 C172.209867,55.5019721 172.033533,55.1481774 171.7632,54.9333142 C171.492867,54.7184511 171.0872,54.6093616 170.547533,54.6093616 C169.989533,54.6093616 169.5522,54.7250826 169.237533,54.9551984 C169.034533,55.1047405 168.931867,55.3016984 168.931867,55.5503826 C168.931867,55.7768511 169.0272,55.9701616 169.219533,56.1296511 C169.462867,56.3358932 170.053867,56.5490984 170.9932,56.7712563 C171.932533,56.9910932 172.626533,57.2215405 173.0752,57.45663 C173.525533,57.6947037 173.878533,58.0163353 174.132867,58.42683 C174.386867,58.8373247 174.5142,59.3433142 174.5142,59.94513 C174.5142,60.4909089 174.362867,61.0041932 174.056533,61.4810037 C173.7512,61.9581458 173.320533,62.3132668 172.762867,62.5443774 C172.2052,62.7771458 171.5092,62.8928668 170.676867,62.8928668 C169.4652,62.8928668 168.534533,62.6150037 167.885533,62.0579511 C167.235533,61.5028879 166.849867,60.6931721 166.722867,59.63013 L166.722867,59.63013 Z M158.302533,62.7191195 L158.302533,53.1848984 L165.397867,53.1848984 L165.397867,54.7957089 L160.243533,54.7957089 L160.243533,56.9138353 L165.036533,56.9138353 L165.036533,58.5243142 L160.243533,58.5243142 L160.243533,61.1076458 L165.5852,61.1076458 L165.5852,62.7191195 L158.302533,62.7191195 Z M150.124533,62.7191195 L150.124533,53.1848984 L156.7112,53.1848984 L156.7112,54.7957089 L152.065533,54.7957089 L152.065533,57.05973 L156.0822,57.05973 L156.0822,58.6708721 L152.065533,58.6708721 L152.065533,62.7191195 L150.124533,62.7191195 Z M141.304533,57.9453774 C141.304533,59.0266563 141.5562,59.8453247 142.058867,60.4043668 C142.560533,60.9614195 143.198533,61.2409405 143.970533,61.2409405 C144.744867,61.2409405 145.378867,60.9640721 145.8762,60.41133 C146.3712,59.8565984 146.619533,59.0266563 146.619533,57.9188511 C146.619533,56.8239774 146.377867,56.0079616 145.8942,55.4704721 C145.411867,54.9309932 144.771867,54.6624142 143.970533,54.6624142 C143.171533,54.6624142 142.5272,54.9353037 142.038867,55.4790932 C141.549867,56.0252037 141.304533,56.8468563 141.304533,57.9453774 L141.304533,57.9453774 Z M139.309533,58.0093721 C139.309533,57.0375142 139.456867,56.2205037 139.7492,55.5590037 C139.965533,55.0735721 140.2642,54.6358879 140.641867,54.2495984 C141.018533,53.8633089 141.431867,53.5774879 141.879867,53.3881563 C142.4782,53.1381458 143.167533,53.0114826 143.948533,53.0114826 C145.362533,53.0114826 146.4922,53.4488353 147.342533,54.3205563 C148.189867,55.1952616 148.6142,56.4095037 148.6142,57.9656037 C148.6142,59.5077774 148.1922,60.7150563 147.351533,61.5851195 C146.5102,62.4571721 145.382867,62.8928668 143.9752,62.8928668 C142.549533,62.8928668 141.413867,62.4594932 140.572533,61.5920826 C139.731533,60.72633 139.309533,59.5326458 139.309533,58.0093721 L139.309533,58.0093721 Z M131.9842,57.2192195 L133.416867,57.2192195 C134.344867,57.2192195 134.9232,57.17943 135.154533,57.1018405 C135.384867,57.0242511 135.567533,56.8886353 135.697533,56.6976458 C135.828867,56.5069879 135.893867,56.2669247 135.893867,55.9811037 C135.893867,55.6591405 135.806533,55.4015037 135.634533,55.2022247 C135.4632,55.0042721 135.219867,54.8805932 134.907533,54.8288668 C134.748867,54.8066511 134.2782,54.7957089 133.4952,54.7957089 L131.9842,54.7957089 L131.9842,57.2192195 Z M130.0432,62.7191195 L130.0432,53.1848984 L134.119533,53.1848984 C135.143867,53.1848984 135.888867,53.2707774 136.353533,53.4422037 C136.8192,53.6132984 137.189867,53.9170247 137.4692,54.3543774 C137.747533,54.7937195 137.8882,55.2927458 137.8882,55.8567616 C137.8882,56.5736353 137.678533,57.1638458 137.256533,57.6300458 C136.834867,58.0962458 136.2062,58.38903 135.3672,58.5113826 C135.784533,58.7534353 136.1282,59.0193616 136.397533,59.3104879 C136.669867,59.6012826 137.035533,60.1185458 137.4952,60.8596247 L138.664867,62.7191195 L136.350533,62.7191195 L134.9632,60.6374668 C134.465533,59.8983774 134.1242,59.4321774 133.938867,59.2388668 C133.755867,59.0485405 133.561533,58.9152458 133.356533,58.8442879 C133.148867,58.77333 132.8232,58.7378511 132.376533,58.7378511 L131.9842,58.7378511 L131.9842,62.7191195 L130.0432,62.7191195 Z M123.054867,54.7957089 L123.054867,57.5123353 L124.1102,57.5123353 C124.871533,57.5123353 125.3782,57.4616037 125.634867,57.3617984 C125.890867,57.26133 126.0922,57.1061511 126.236533,56.8906247 C126.381867,56.6777511 126.455867,56.4317195 126.455867,56.1475563 C126.455867,55.7990668 126.352867,55.5129142 126.149867,55.2857826 C125.9442,55.0596458 125.687867,54.9183932 125.3732,54.8603668 C125.143867,54.8175932 124.6812,54.7957089 123.9852,54.7957089 L123.054867,54.7957089 Z M121.113867,62.7191195 L121.113867,53.1848984 L124.217867,53.1848984 C125.3932,53.1848984 126.158533,53.2306563 126.515867,53.3261511 C127.064867,53.4710511 127.524533,53.7814089 127.894867,54.2612037 C128.2652,54.7400037 128.450533,55.3593932 128.450533,56.1187089 C128.450533,56.7046089 128.343533,57.1953458 128.1312,57.5948984 C127.916867,57.9944511 127.646533,58.30713 127.318867,58.5355879 C126.990533,58.7617247 126.6562,58.9132563 126.317533,58.9868668 C125.8552,59.0773879 125.1882,59.1241405 124.313867,59.1241405 L123.054867,59.1241405 L123.054867,62.7191195 L121.113867,62.7191195 Z M107.956533,59.63013 L109.844533,59.4431195 C109.957533,60.0714616 110.185533,60.53103 110.531533,60.8264668 C110.876867,61.1215721 111.343533,61.2677984 111.9302,61.2677984 C112.550533,61.2677984 113.0192,61.1368247 113.3332,60.8755405 C113.648867,60.6135932 113.806867,60.3068826 113.806867,59.9560721 C113.806867,59.7299353 113.739867,59.5386142 113.6082,59.3791247 C113.476533,59.2219563 113.244533,59.0843511 112.9142,58.96863 C112.688867,58.8883879 112.175867,58.7507826 111.372867,58.5515037 C110.3392,58.2935353 109.613867,57.9788668 109.1972,57.6031879 C108.6102,57.0773037 108.317867,56.43603 108.317867,55.6793668 C108.317867,55.1929405 108.456533,54.7356932 108.730533,54.3116037 C109.0072,53.8881774 109.404533,53.5665458 109.924533,53.3443879 C110.4442,53.1218984 111.068867,53.0114826 111.8052,53.0114826 C113.003867,53.0114826 113.9072,53.2757511 114.5122,53.8056142 C115.118867,54.3361405 115.435533,55.0420721 115.466867,55.9277195 L113.525867,55.9943668 C113.4432,55.5019721 113.2672,55.1481774 112.9972,54.9333142 C112.726867,54.7184511 112.320867,54.6093616 111.7812,54.6093616 C111.2232,54.6093616 110.785867,54.7250826 110.470867,54.9551984 C110.267867,55.1047405 110.165533,55.3016984 110.165533,55.5503826 C110.165533,55.7768511 110.2612,55.9701616 110.4532,56.1296511 C110.696533,56.3358932 111.287533,56.5490984 112.226867,56.7712563 C113.1662,56.9910932 113.859867,57.2215405 114.308867,57.45663 C114.759533,57.6947037 115.111867,58.0163353 115.366533,58.42683 C115.620867,58.8373247 115.7482,59.3433142 115.7482,59.94513 C115.7482,60.4909089 115.596533,61.0041932 115.2902,61.4810037 C114.984533,61.9581458 114.553867,62.3132668 113.996533,62.5443774 C113.438533,62.7771458 112.742533,62.8928668 111.910533,62.8928668 C110.698533,62.8928668 109.7682,62.6150037 109.1192,62.0579511 C108.469533,61.5028879 108.083533,60.6931721 107.956533,59.63013 L107.956533,59.63013 Z M99.5362,62.7191195 L99.5362,53.1848984 L106.631533,53.1848984 L106.631533,54.7957089 L101.4772,54.7957089 L101.4772,56.9138353 L106.269867,56.9138353 L106.269867,58.5243142 L101.4772,58.5243142 L101.4772,61.1076458 L106.818533,61.1076458 L106.818533,62.7191195 L99.5362,62.7191195 Z M91.8088667,54.7957089 L91.8088667,61.1076458 L93.2482,61.1076458 C93.7858667,61.1076458 94.1745333,61.0768089 94.4128667,61.0171247 C94.7272,60.9395353 94.9862,60.8062405 95.1918667,60.61923 C95.3992,60.4332142 95.5665333,60.1274984 95.6955333,59.7010879 C95.8275333,59.2746774 95.8918667,58.6907668 95.8918667,57.9536668 C95.8918667,57.2175616 95.8275333,56.6535458 95.6955333,56.2583037 C95.5665333,55.8637247 95.3832,55.5570142 95.1495333,55.3348563 C94.9148667,55.1156826 94.6182,54.9641511 94.2565333,54.88623 C93.9888667,54.8268774 93.4598667,54.7957089 92.6748667,54.7957089 L91.8088667,54.7957089 Z M89.8678667,53.1848984 L93.3978667,53.1848984 C94.1942,53.1848984 94.8015333,53.2445826 95.2188667,53.3662721 C95.7785333,53.5304037 96.2605333,53.8235195 96.6598667,54.2449563 C97.0615333,54.6650668 97.3648667,55.1793458 97.5742,55.7901142 C97.7825333,56.3985616 97.8872,57.1505826 97.8872,58.0431932 C97.8872,58.8283721 97.7888667,59.5037984 97.5925333,60.0714616 C97.3538667,60.7661195 97.0122,61.3278142 96.5685333,61.7562142 C96.2335333,62.0828195 95.7805333,62.3358142 95.2115333,62.5171879 C94.7855333,62.6524721 94.2165333,62.7191195 93.5022,62.7191195 L89.8678667,62.7191195 L89.8678667,53.1848984 Z M77.2195333,62.7191195 L77.2195333,53.1848984 L84.3145333,53.1848984 L84.3145333,54.7957089 L79.1602,54.7957089 L79.1602,56.9138353 L83.9532,56.9138353 L83.9532,58.5243142 L79.1602,58.5243142 L79.1602,61.1076458 L84.5018667,61.1076458 L84.5018667,62.7191195 L77.2195333,62.7191195 Z M69.4922,57.2192195 L70.9248667,57.2192195 C71.8525333,57.2192195 72.4308667,57.17943 72.6628667,57.1018405 C72.8928667,57.0242511 73.0755333,56.8886353 73.2055333,56.6976458 C73.3365333,56.5069879 73.4015333,56.2669247 73.4015333,55.9811037 C73.4015333,55.6591405 73.3145333,55.4015037 73.1425333,55.2022247 C72.9708667,55.0042721 72.7275333,54.8805932 72.4152,54.8288668 C72.2572,54.8066511 71.7862,54.7957089 71.0032,54.7957089 L69.4922,54.7957089 L69.4922,57.2192195 Z M67.5512,62.7191195 L67.5512,53.1848984 L71.6272,53.1848984 C72.6515333,53.1848984 73.3968667,53.2707774 73.8612,53.4422037 C74.3272,53.6132984 74.6975333,53.9170247 74.9768667,54.3543774 C75.2555333,54.7937195 75.3965333,55.2927458 75.3965333,55.8567616 C75.3965333,56.5736353 75.1865333,57.1638458 74.7645333,57.6300458 C74.3432,58.0962458 73.7142,58.38903 72.8748667,58.5113826 C73.2922,58.7534353 73.6362,59.0193616 73.9055333,59.3104879 C74.1778667,59.6012826 74.5435333,60.1185458 75.0032,60.8596247 L76.1728667,62.7191195 L73.8588667,62.7191195 L72.4708667,60.6374668 C71.9735333,59.8983774 71.6322,59.4321774 71.4468667,59.2388668 C71.2635333,59.0485405 71.0695333,58.9152458 70.8642,58.8442879 C70.6568667,58.77333 70.3312,58.7378511 69.8848667,58.7378511 L69.4922,58.7378511 L69.4922,62.7191195 L67.5512,62.7191195 Z M63.7645333,62.7194511 L65.7055333,62.7194511 L65.7055333,53.1848984 L63.7645333,53.1848984 L63.7645333,62.7194511 Z M59.2508667,58.93713 L57.9188667,55.4087984 L56.6242,58.93713 L59.2508667,58.93713 Z M62.7982,62.7191195 L60.7078667,62.7191195 L59.8802,60.5489353 L56.0352,60.5489353 L55.2392,62.7191195 L53.1862,62.7191195 L56.9078667,53.1848984 L58.9585333,53.1848984 L62.7982,62.7191195 Z M44.4955333,62.7191195 L44.4955333,53.1848984 L46.3738667,53.1848984 L50.3188667,59.5744247 L50.3188667,53.1848984 L52.1125333,53.1848984 L52.1125333,62.7191195 L50.1738667,62.7191195 L46.2892,56.4516142 L46.2892,62.7191195 L44.4955333,62.7191195 Z M35.5662,62.7191195 L35.5662,53.1848984 L42.6618667,53.1848984 L42.6618667,54.7957089 L37.5072,54.7957089 L37.5072,56.9138353 L42.3002,56.9138353 L42.3002,58.5243142 L37.5072,58.5243142 L37.5072,61.1076458 L42.8488667,61.1076458 L42.8488667,62.7191195 L35.5662,62.7191195 Z M29.5435333,62.7191195 L29.5435333,54.7957089 L26.7055333,54.7957089 L26.7055333,53.1848984 L34.3095333,53.1848984 L34.3095333,54.7957089 L31.4842,54.7957089 L31.4842,62.7191195 L29.5435333,62.7191195 Z M19.6612,57.2192195 L21.0942,57.2192195 C22.0218667,57.2192195 22.6002,57.17943 22.8315333,57.1018405 C23.0618667,57.0242511 23.2445333,56.8886353 23.3742,56.6976458 C23.5058667,56.5069879 23.5705333,56.2669247 23.5705333,55.9811037 C23.5705333,55.6591405 23.4835333,55.4015037 23.3115333,55.2022247 C23.1398667,55.0042721 22.8968667,54.8805932 22.5842,54.8288668 C22.4262,54.8066511 21.9555333,54.7957089 21.1722,54.7957089 L19.6612,54.7957089 L19.6612,57.2192195 Z M17.7202,62.7191195 L17.7202,53.1848984 L21.7962,53.1848984 C22.8205333,53.1848984 23.5662,53.2707774 24.0305333,53.4422037 C24.4962,53.6132984 24.8665333,53.9170247 25.1462,54.3543774 C25.4245333,54.7937195 25.5655333,55.2927458 25.5655333,55.8567616 C25.5655333,56.5736353 25.3555333,57.1638458 24.9335333,57.6300458 C24.5118667,58.0962458 23.8832,58.38903 23.0438667,58.5113826 C23.4615333,58.7534353 23.8048667,59.0193616 24.0745333,59.3104879 C24.3468667,59.6012826 24.7125333,60.1185458 25.1722,60.8596247 L26.3418667,62.7191195 L24.0275333,62.7191195 L22.6402,60.6374668 C22.1425333,59.8983774 21.8012,59.4321774 21.6158667,59.2388668 C21.4328667,59.0485405 21.2382,58.9152458 21.0332,58.8442879 C20.8258667,58.77333 20.5002,58.7378511 20.0535333,58.7378511 L19.6612,58.7378511 L19.6612,62.7191195 L17.7202,62.7191195 Z M13.1395333,58.93713 L10.5125333,58.93713 L11.8072,55.4087984 L13.1395333,58.93713 Z M16.6868667,62.7191195 L12.8468667,53.1848984 L10.7962,53.1848984 L7.07486667,62.7191195 L9.12753333,62.7191195 L9.92386667,60.5489353 L13.7685333,60.5489353 L14.5962,62.7191195 L16.6868667,62.7191195 Z M2.0562,54.7957089 L2.0562,57.5123353 L3.11186667,57.5123353 C3.87286667,57.5123353 4.37953333,57.4616037 4.6362,57.3617984 C4.89253333,57.26133 5.09386667,57.1061511 5.23786667,56.8906247 C5.3832,56.6777511 5.4572,56.4317195 5.4572,56.1475563 C5.4572,55.7990668 5.3542,55.5129142 5.15086667,55.2857826 C4.94553333,55.0596458 4.6892,54.9183932 4.37486667,54.8603668 C4.1452,54.8175932 3.68286667,54.7957089 2.98686667,54.7957089 L2.0562,54.7957089 Z M0.1152,62.7191195 L0.1152,53.1848984 L3.2192,53.1848984 C4.39486667,53.1848984 5.1602,53.2306563 5.5172,53.3261511 C6.0662,53.4710511 6.52553333,53.7814089 6.8962,54.2612037 C7.26686667,54.7400037 7.4522,55.3593932 7.4522,56.1187089 C7.4522,56.7046089 7.3452,57.1953458 7.13286667,57.5948984 C6.91853333,57.9944511 6.64853333,58.30713 6.32053333,58.5355879 C5.9922,58.7617247 5.65786667,58.9132563 5.31886667,58.9868668 C4.85653333,59.0773879 4.18953333,59.1241405 3.3152,59.1241405 L2.0562,59.1241405 L2.0562,62.7191195 L0.1152,62.7191195 Z" id="Fill-57"></path>
                </g>
            </g>
        </g>
    </g>
</svg>